HIERARCHY
ROOT root
{
	OFFSET 0.000000 0.000000 0.000000
	CHANNELS 6 Xposition Yposition Zposition Zrotation Yrotation Xrotation
	JOINT lhip
	{
		OFFSET 0.058581 -0.082280 -0.017664
		CHANNELS 3 Zrotation Yrotation Xrotation
		JOINT lknee
		{
			OFFSET 0.043451 -0.386469 0.008037
			CHANNELS 3 Zrotation Yrotation Xrotation
			JOINT lankle
			{
				OFFSET -0.014790 -0.426874 -0.037428
				CHANNELS 3 Zrotation Yrotation Xrotation
				JOINT ltoe
				{
					OFFSET 0.041054 -0.060286 0.122042
					CHANNELS 3 Zrotation Yrotation Xrotation
					End Site
					{
						OFFSET 0.000000 0.000000 0.000000
					}
				}
			}
		}
	}
	JOINT rhip
	{
		OFFSET -0.060310 -0.090513 -0.013543
		CHANNELS 3 Zrotation Yrotation Xrotation
		JOINT rknee
		{
			OFFSET -0.043257 -0.383688 -0.004843
			CHANNELS 3 Zrotation Yrotation Xrotation
			JOINT rankle
			{
				OFFSET 0.019056 -0.420046 -0.034562
				CHANNELS 3 Zrotation Yrotation Xrotation
				JOINT rtoe
				{
					OFFSET -0.034840 -0.062106 0.130323
					CHANNELS 3 Zrotation Yrotation Xrotation
					End Site
					{
						OFFSET 0.000000 0.000000 0.000000
					}
				}
			}
		}
	}
	JOINT lowerback
	{
		OFFSET 0.004439 0.124404 -0.038385
		CHANNELS 3 Zrotation Yrotation Xrotation
		JOINT upperback
		{
			OFFSET 0.004488 0.137956 0.026820
			CHANNELS 3 Zrotation Yrotation Xrotation
			JOINT chest
			{
				OFFSET -0.002265 0.056032 0.002855
				CHANNELS 3 Zrotation Yrotation Xrotation
				JOINT lowerneck
				{
					OFFSET -0.013390 0.211636 -0.033468
					CHANNELS 3 Zrotation Yrotation Xrotation
					JOINT upperneck
					{
						OFFSET 0.010113 0.088937 0.050410
						CHANNELS 3 Zrotation Yrotation Xrotation
						End Site
						{
							OFFSET 0.000000 0.000000 0.000000
						}
					}
				}
				JOINT lclavicle
				{
					OFFSET 0.071702 0.114000 -0.018898
					CHANNELS 3 Zrotation Yrotation Xrotation
					JOINT lshoulder
					{
						OFFSET 0.122921 0.045205 -0.019046
						CHANNELS 3 Zrotation Yrotation Xrotation
						JOINT lelbow
						{
							OFFSET 0.255332 -0.015649 -0.022946
							CHANNELS 3 Zrotation Yrotation Xrotation
							JOINT lwrist
							{
								OFFSET 0.265709 0.012698 -0.007375
								CHANNELS 3 Zrotation Yrotation Xrotation
								End Site
								{
									OFFSET 0.000000 0.000000 0.000000
								}
							}
						}
					}
				}
				JOINT rclavicle
				{
					OFFSET -0.082954 0.112472 -0.023707
					CHANNELS 3 Zrotation Yrotation Xrotation
					JOINT rshoulder
					{
						OFFSET -0.113228 0.046853 -0.008472
						CHANNELS 3 Zrotation Yrotation Xrotation
						JOINT relbow
						{
							OFFSET -0.260127 -0.014369 -0.031269
							CHANNELS 3 Zrotation Yrotation Xrotation
							JOINT rwrist
							{
								OFFSET -0.269108 0.006794 -0.006027
								CHANNELS 3 Zrotation Yrotation Xrotation
								End Site
								{
									OFFSET 0.000000 0.000000 0.000000
								}
							}
						}
					}
				}
			}
		}
	}
}
MOTION
Frames: 5
Frame Time: 0.033333
1.356830 0.316271 0.996301 -94.316924 -2.458899 91.634041 -1.045067 -8.632951 -19.139976 -5.015321 -1.270985 16.113856 6.855454 14.146352 1.464769 0.000000 -0.000000 0.000000 -4.178384 -2.032570 4.823175 -4.119618 2.465578 56.900514 5.313585 -13.381988 15.709910 0.000000 -0.000000 0.000000 -5.647256 8.655271 0.894085 -0.432972 3.320414 2.235815 -2.017597 4.384192 3.924827 1.581661 -11.034820 3.542936 5.663546 -7.896404 6.549142 -13.358806 18.439181 3.545299 -44.475277 12.410615 15.053200 -125.043738 -55.657214 161.361513 24.677601 -16.895914 -0.632357 12.127872 -6.476515 -4.108523 66.544344 -4.378525 22.641273 125.816628 71.994732 153.015285 -23.995347 15.885545 -4.389283 
1.281347 0.312818 0.970099 -92.559422 -2.598703 90.523730 -3.414225 -7.617650 -17.600596 -6.278145 -2.463642 26.710485 11.514126 15.467240 -11.131646 0.000000 -0.000000 0.000000 -5.359460 -2.274488 -0.268478 -4.111452 1.546271 69.374246 5.339291 -13.766537 11.360352 0.000000 -0.000000 0.000000 -5.469964 6.700719 3.536874 -0.415990 2.383225 0.238426 -2.365196 3.001367 5.137404 2.556681 -10.553908 1.660018 4.935010 -6.680613 7.313280 -16.915960 17.147948 2.021702 -45.218477 9.817251 15.813054 -122.810174 -58.070271 159.461505 24.787823 -16.781834 -0.111934 14.478441 -9.038310 -5.136578 63.148685 -9.692031 21.665076 112.930082 74.546489 141.598216 -25.173550 15.778101 -2.087559 
1.210035 0.312992 0.948786 -91.784843 -2.450242 89.518449 -4.579158 -5.901491 -13.737234 -7.894533 -4.760141 31.980443 13.514317 18.186692 -18.407104 0.000000 -0.000000 0.000000 -5.858846 -1.701664 -7.692895 -2.684084 1.225584 80.556308 4.831360 -15.366266 6.454859 0.000000 -0.000000 0.000000 -5.432067 4.619027 6.057223 -0.516594 2.138070 -0.608334 -2.570096 1.577680 6.462840 3.870832 -9.767545 -1.072630 4.740814 -5.663679 7.824256 -20.985085 14.564624 0.245767 -46.309030 5.407226 16.403165 -119.948794 -61.471417 156.435319 24.698700 -15.939628 1.680092 17.301504 -10.952409 -5.629042 59.831293 -14.341711 19.949790 89.289641 77.817966 117.621623 -26.041481 14.554777 1.008344 
1.123542 0.314235 0.943657 -90.534529 -1.626722 89.480465 -4.552755 -4.062038 -7.295012 -8.898406 -8.374138 32.500713 12.352437 19.046647 -21.412345 0.000000 -0.000000 0.000000 -5.226269 -0.964052 -19.851641 -2.169160 -0.204395 88.240764 4.635298 -16.295206 2.431844 0.000000 -0.000000 0.000000 -5.074734 1.050343 7.986726 -0.287377 1.464349 -1.311747 -2.520899 -0.699111 6.834762 3.851080 -8.389036 -2.180661 4.485141 -3.659057 8.718399 -23.330263 12.342742 -0.125091 -50.363251 -1.493572 16.635412 -120.563400 -64.854321 157.516148 25.260472 -15.959258 2.505711 18.519605 -12.921311 -4.809010 55.598146 -19.399704 17.884831 57.341607 77.135311 85.102709 -25.838685 13.992473 2.494425 
1.070899 0.314556 0.953345 -88.787822 -0.550922 89.844266 -3.703313 -2.944063 -3.203225 -8.832965 -11.657646 31.305750 9.996622 18.078882 -20.330555 0.000000 -0.000000 0.000000 -4.434455 -1.145363 -26.297106 -2.724660 -1.853239 87.444876 4.952092 -15.772444 0.226329 0.000000 -0.000000 0.000000 -3.809414 -1.918818 8.386989 -0.058549 0.525948 -1.690574 -2.473198 -2.213896 6.814903 2.784567 -7.780883 -1.981187 3.935363 -2.048931 9.169225 -23.682374 11.589979 -0.264566 -53.036432 -5.063197 17.000494 -124.119282 -65.765138 161.110032 25.820291 -16.508575 2.154011 17.922059 -14.466542 -4.593580 52.305046 -22.310258 17.041232 55.897638 75.068675 83.371845 -24.731120 14.830809 1.706884 
